<?xml version="1.0" encoding="UTF-8"?>
<svg id="Layer_1" data-name="Layer 1" xmlns="http://www.w3.org/2000/svg" xmlns:xlink="http://www.w3.org/1999/xlink" viewBox="0 0 5617.86 1774.11">
  <defs>
    <style>
      .cls-1 {
        fill: url(#linear-gradient);
      }

      .cls-1, .cls-2, .cls-3, .cls-4 {
        stroke-width: 0px;
      }

      .cls-2 {
        clip-rule: evenodd;
        fill: none;
      }

      .cls-5 {
        clip-path: url(#clippath);
      }

      .cls-3 {
        fill: #a3a3a3;
      }

      .cls-4 {
        fill: #45b652;
      }
    </style>
    <clipPath id="clippath">
      <path class="cls-2" d="M543.83,1725.96c-92.66,14.48-205.65,7.56-348.56-29.22,158.59,67.56,335,77.37,498.88,29.22h481.59c74.37,0,140.18-54.99,135.22-121.85l-38.64-521.79c-314.62,202.94-365.94,587.01-728.49,643.64M86.4,1618.07c12.89-145.52,53.89-268.05,116.12-367.99,205.33-329.77,641.81-413.67,1062.49-266.48l-34.88-470.84c-4.87-65.8-59.09-120.1-131.69-121.81v45.27c14,14.7,22.07,34.39,22.07,55.24,0,44.24-35.87,80.12-80.11,80.12s-80.11-35.88-80.11-80.12c0-20.85,8.07-40.53,22.08-55.24v-45.32h-477.49v45.32c14,14.7,22.08,34.39,22.08,55.24,0,44.24-35.88,80.12-80.11,80.12s-80.12-35.88-80.12-80.12c0-20.85,8.08-40.53,22.09-55.24v-45.27c-72.61,1.7-126.82,56-131.7,121.81l-47.5,641.26c-87.87,137.05-131.65,299.13-123.23,464.05Z"/>
    </clipPath>
    <linearGradient id="linear-gradient" x1="41.94" y1="1427.3" x2="1439.1" y2="691.86" gradientUnits="userSpaceOnUse">
      <stop offset="0" stop-color="#45b652"/>
      <stop offset="1" stop-color="#d1d935"/>
    </linearGradient>
  </defs>
  <g>
    <path class="cls-4" d="M0,1683.36c702.57-10.98,746.63-644.49,1429.31-655.8C704.01,973.15,592.27,1511.8,0,1683.36"/>
    <g class="cls-5">
      <rect class="cls-1" x="77.98" y="390.91" width="1237.94" height="1383.2"/>
    </g>
    <path class="cls-4" d="M421.05,451.12v-128.55c0-88.73,36.29-169.39,94.74-227.84C574.24,36.29,654.89,0,743.63,0s169.39,36.29,227.84,94.74c58.45,58.45,94.74,139.11,94.74,227.84v128.55c13.28,8.51,22.08,23.4,22.08,40.34,0,26.45-21.43,47.88-47.88,47.88s-47.88-21.44-47.88-47.88c0-16.94,8.8-31.84,22.08-40.34v-128.55c0-74.49-30.5-142.24-79.62-191.36-49.12-49.12-116.87-79.62-191.36-79.62s-142.24,30.5-191.37,79.62c-49.12,49.12-79.62,116.87-79.62,191.36v128.55c13.29,8.51,22.09,23.4,22.09,40.34,0,26.45-21.43,47.88-47.88,47.88s-47.88-21.44-47.88-47.88c0-16.94,8.8-31.84,22.08-40.34"/>
  </g>
  <g>
    <path class="cls-3" d="M1602.88,1083.9c0-10.79,3.81-20.08,11.46-27.85,7.63-7.76,16.99-11.65,28.05-11.65s20.08,3.89,27.85,11.65c7.76,7.77,11.65,17.05,11.65,27.85,0,32.66,11.52,60.57,34.56,83.74,23.04,23.18,51.02,34.76,83.94,34.76s60.57-11.58,83.74-34.76c23.17-23.17,34.76-51.09,34.76-83.74s-11.59-60.57-34.76-83.74c-23.18-23.17-51.09-34.76-83.74-34.76-34.5,0-63.86-12.18-88.09-36.54-24.23-24.36-36.34-53.66-36.34-87.89s12.11-63.86,36.34-88.09c24.23-24.23,53.59-36.34,88.09-36.34,31.86,0,59.51,10.54,82.95,31.6,1.31,1.06,2.77,2.24,4.35,3.56,7.63,7.9,11.46,17.25,11.46,28.05s-3.89,20.41-11.65,28.05c-7.77,7.64-17.05,11.46-27.85,11.46s-20.41-3.81-28.05-11.46c-1.06-1.05-1.98-1.97-2.77-2.76l-.4.4c-8.17-6.58-17.52-9.88-28.05-9.88-12.64,0-23.37,4.41-32.19,13.23s-13.23,19.55-13.23,32.19,4.41,23.38,13.23,32.19c8.82,8.83,19.55,13.23,32.19,13.23,54.51,0,101.06,19.29,139.64,57.87,38.58,38.58,57.87,85.13,57.87,139.64s-19.29,101.06-57.87,139.64c-38.58,38.58-85.13,57.87-139.64,57.87s-101.39-19.29-139.84-57.87c-38.45-38.58-57.67-85.13-57.67-139.64Z"/>
    <path class="cls-3" d="M2077.7,810.55c0-11.06,3.95-20.54,11.85-28.44s17.38-11.85,28.44-11.85,20.54,3.95,28.44,11.85,11.85,17.38,11.85,28.44v114.56c31.86-23.17,69.92-36.08,114.16-38.71h6.32c55.56,3.16,101.25,22.65,137.07,58.46,37.92,37.92,57.14,83.74,57.67,137.47v160.38c0,12.64-3.95,22.26-11.85,28.84-7.9,6.58-17.38,9.88-28.44,9.88s-20.54-3.29-28.44-9.88c-7.9-6.58-11.85-15.93-11.85-28.05v-160.38c0-2.37.13-4.74.4-7.11-1.58-28.97-12.91-53.85-33.97-74.66-22.91-22.91-50.56-34.37-82.95-34.37h-1.58c-32.39,0-60.04,11.46-82.95,34.37-19.75,19.49-30.95,42.66-33.58,69.52v172.62c0,12.12-3.95,21.47-11.85,28.05-7.9,6.58-17.38,9.88-28.44,9.88s-20.54-3.29-28.44-9.88c-7.9-6.58-11.85-16.2-11.85-28.84v-432.15Z"/>
    <path class="cls-3" d="M2889.07,944.85c38.45,38.45,57.67,84.93,57.67,139.44s-19.23,101-57.67,139.44-84.93,57.67-139.44,57.67-101-19.22-139.44-57.67c-38.45-38.45-57.67-84.93-57.67-139.44s19.22-100.99,57.67-139.44c38.45-38.45,84.93-57.67,139.44-57.67s100.99,19.23,139.44,57.67ZM2749.63,966.98c-32.39,0-60.04,11.39-82.96,34.17-22.91,22.78-34.37,50.37-34.37,82.76s11.46,60.04,34.37,82.95c22.91,22.91,50.56,34.37,82.96,34.37s59.97-11.46,82.76-34.37c22.78-22.91,34.17-50.56,34.17-82.95s-11.39-59.97-34.17-82.76c-22.78-22.78-50.37-34.17-82.76-34.17Z"/>
    <path class="cls-3" d="M3027.32,1082.32c.52-53.72,19.75-99.54,57.67-137.47,38.45-38.45,84.93-57.67,139.44-57.67s100.99,19.23,139.44,57.67c38.45,38.45,57.67,84.93,57.67,139.44s-19.23,101-57.67,139.44-84.93,57.67-139.44,57.67c-43.98,0-82.83-12.64-116.53-37.92v155.64c0,11.06-3.95,20.54-11.85,28.44s-17.38,11.85-28.44,11.85-20.54-3.95-28.44-11.85-11.85-17.38-11.85-28.44v-316.81ZM3107.51,1076c.26,2.37.39,4.74.39,7.11v15.01c2.89,26.34,14.08,49.25,33.58,68.73,22.91,22.91,50.56,34.37,82.96,34.37s59.97-11.46,82.76-34.37c22.78-22.91,34.17-50.56,34.17-82.95s-11.39-59.97-34.17-82.76c-22.78-22.78-50.37-34.17-82.76-34.17s-60.04,11.33-82.96,33.97c-21.07,21.07-32.39,46.09-33.97,75.05Z"/>
    <path class="cls-4" d="M3372.18,775c-3.95-6.05-5.93-12.9-5.93-20.54,0-10.79,3.81-20.08,11.46-27.85,7.64-7.76,16.99-11.65,28.05-11.65s20.15,3.82,28.05,11.46c3.42,3.69,6.05,7.5,7.9,11.46l201.06,413.59,200.67-413.59h.39c1.84-3.95,4.48-7.76,7.9-11.46,7.64-7.64,16.99-11.46,28.05-11.46s20.08,3.89,27.85,11.65c7.76,7.77,11.65,17.05,11.65,27.85,0,8.43-2.24,15.8-6.71,22.12l-234.25,482.71c-1.85,3.69-4.34,7.11-7.5,10.27-7.9,7.9-17.25,11.85-28.05,11.85s-20.41-3.95-28.05-11.85c-3.69-3.68-6.46-7.63-8.29-11.85l-234.25-482.71Z"/>
    <path class="cls-4" d="M4114.81,976.85c-14.49-6.58-30.42-9.88-47.8-9.88-32.39,0-60.04,11.39-82.96,34.17-22.91,22.78-34.37,50.37-34.37,82.76s11.46,60.04,34.37,82.95c22.91,22.91,50.56,34.37,82.96,34.37s59.65-11.32,82.56-33.97c.26-.26.52-.53.79-.79,7.63-7.63,16.99-11.46,28.05-11.46s20.54,3.89,28.44,11.65c7.9,7.77,11.85,17.18,11.85,28.24s-3.95,20.54-11.85,28.44c-.26.27-.53.53-.79.79-38.19,38.19-84.54,57.28-139.05,57.28s-101-19.22-139.44-57.67c-38.45-38.45-57.67-84.93-57.67-139.44s19.22-100.99,57.67-139.44c38.45-38.45,84.93-57.67,139.44-57.67s100.86,19.1,139.05,57.28l-.4.39c0,.27.13.39.4.39,7.63,7.64,11.46,16.99,11.46,28.05s-3.82,20.02-11.46,27.65l-112.98,112.19c-7.9,7.64-17.38,11.46-28.44,11.46s-20.94-3.81-28.84-11.46c-7.64-7.9-11.46-17.51-11.46-28.84s3.81-20.54,11.46-28.44l79-79Z"/>
    <path class="cls-4" d="M4586.47,1243.49c-33.71,25.28-72.68,37.92-116.93,37.92-54.51,0-101-19.22-139.44-57.67-38.45-38.45-57.67-84.93-57.67-139.44s19.22-100.99,57.67-139.44c38.45-38.45,84.93-57.67,139.44-57.67s100.99,19.23,139.44,57.67c38.45,38.45,57.67,84.8,57.67,139.05h.4v157.22c0,2.11-.14,4.22-.4,6.32-1.32,52.4-20.54,97.17-57.67,134.31-38.45,38.45-84.93,57.67-139.44,57.67h-1.58c-11.06,0-20.54-3.95-28.44-11.85s-11.85-17.38-11.85-28.44,3.95-20.54,11.85-28.44,17.38-11.85,28.44-11.85c1.84,0,3.68.13,5.53.39,30.55-1.05,56.88-12.51,79-34.37,22.38-22.65,33.71-49.77,33.97-81.37ZM4469.54,966.98c-32.39,0-60.04,11.39-82.96,34.17-22.91,22.78-34.37,50.37-34.37,82.76s11.46,60.04,34.37,82.95c22.91,22.91,50.56,34.37,82.96,34.37s59.97-11.46,82.76-34.37c22.78-22.91,34.17-50.56,34.17-82.95s-11.39-59.97-34.17-82.76c-22.78-22.78-50.37-34.17-82.76-34.17Z"/>
    <path class="cls-4" d="M5141.47,1242.7c0,15.28-3.95,25.55-11.85,30.81-7.9,5.27-17.38,7.9-28.44,7.9s-20.54-2.63-28.44-7.9c-7.9-5.26-11.85-15.27-11.85-30.02-33.71,25.28-72.55,37.92-116.53,37.92-54.51,0-101-19.22-139.44-57.67-38.45-38.45-57.67-84.93-57.67-139.44s19.22-100.99,57.67-139.44c38.45-38.45,84.93-57.67,139.44-57.67s100.99,19.23,139.44,57.67c37.92,37.92,57.14,83.74,57.67,137.47v160.38ZM5027.31,1001.34c-22.91-22.91-50.56-34.37-82.95-34.37s-59.98,11.39-82.76,34.17-34.17,50.37-34.17,82.76,11.39,60.04,34.17,82.95c22.78,22.91,50.36,34.37,82.76,34.37s60.04-11.46,82.95-34.37c19.49-19.49,30.68-42.4,33.58-68.73v-15.01c0-2.37.13-4.74.4-7.11-1.58-28.97-12.91-53.85-33.97-74.66Z"/>
    <path class="cls-4" d="M5423.12,886.39c55.56,3.16,101.25,22.65,137.07,58.46,37.92,37.92,57.14,83.74,57.67,137.47v152.48c0,15.28-3.95,26.86-11.85,34.76s-17.38,11.85-28.44,11.85-20.54-3.95-28.44-11.85-11.85-19.22-11.85-33.97v-152.48c0-2.37.13-4.74.4-7.11-1.58-28.97-12.91-53.85-33.97-74.66-22.91-22.91-50.56-34.37-82.95-34.37h-1.58c-32.39,0-60.04,11.46-82.96,34.37-21.07,20.81-32.39,45.69-33.97,74.66.26,2.37.39,4.74.39,7.11v152.48c0,14.75-3.95,26.07-11.85,33.97s-17.38,11.85-28.44,11.85-20.54-3.95-28.44-11.85-11.85-19.49-11.85-34.76v-152.48c.52-53.72,19.75-99.54,57.67-137.47,35.81-35.81,81.5-55.3,137.07-58.46h6.32Z"/>
  </g>
</svg>