<?xml version="1.0" encoding="UTF-8"?>
<svg id="Layer_1" data-name="Layer 1" xmlns="http://www.w3.org/2000/svg" xmlns:xlink="http://www.w3.org/1999/xlink" viewBox="0 0 1986.46 2465.66">
  <defs>
    <style>
      .cls-1 {
        fill: url(#linear-gradient);
      }

      .cls-1, .cls-2, .cls-3 {
        stroke-width: 0px;
      }

      .cls-2 {
        clip-rule: evenodd;
        fill: none;
      }

      .cls-4 {
        clip-path: url(#clippath);
      }

      .cls-3 {
        fill: #45b652;
      }
    </style>
    <clipPath id="clippath">
      <path class="cls-2" d="M755.81,2398.75c-128.78,20.12-285.81,10.51-484.43-40.62,220.41,93.9,465.58,107.53,693.35,40.62h669.31c103.36,0,194.82-76.42,187.94-169.35l-53.71-725.18c-437.26,282.05-508.59,815.83-1012.46,894.53M120.08,2248.8c17.92-202.24,74.89-372.53,161.38-511.43,285.37-458.31,891.99-574.93,1476.66-370.36l-48.47-654.37c-6.77-91.45-82.12-166.92-183.03-169.29v62.92c19.46,20.44,30.68,47.79,30.68,76.77,0,61.48-49.86,111.34-111.33,111.34s-111.34-49.86-111.34-111.34c0-28.98,11.22-56.33,30.69-76.77v-62.98h-663.62v62.98c19.46,20.44,30.69,47.79,30.69,76.77,0,61.48-49.86,111.34-111.34,111.34s-111.34-49.86-111.34-111.34c0-28.98,11.23-56.33,30.7-76.77v-62.92c-100.91,2.36-176.26,77.83-183.03,169.29l-66.01,891.23c-122.12,190.47-182.97,415.73-171.27,644.93Z"/>
    </clipPath>
    <linearGradient id="linear-gradient" x1="58.28" y1="1983.66" x2="2000.06" y2="961.55" gradientUnits="userSpaceOnUse">
      <stop offset="0" stop-color="#45b652"/>
      <stop offset="1" stop-color="#d1d935"/>
    </linearGradient>
  </defs>
  <path class="cls-3" d="M0,2339.53c976.44-15.26,1037.67-895.71,1986.46-911.44C978.44,1352.48,823.14,2101.1,0,2339.53"/>
  <g class="cls-4">
    <rect class="cls-1" x="108.38" y="543.29" width="1720.49" height="1922.38"/>
  </g>
  <path class="cls-3" d="M585.18,626.97v-178.66c0-123.32,50.43-235.41,131.67-316.65C798.09,50.43,910.17,0,1033.49,0s235.42,50.43,316.65,131.66c81.24,81.24,131.67,193.34,131.67,316.65v178.66c18.46,11.82,30.69,32.52,30.69,56.07,0,36.76-29.79,66.55-66.54,66.55s-66.54-29.79-66.54-66.55c0-23.55,12.23-44.25,30.69-56.07v-178.66c0-103.53-42.39-197.68-110.65-265.95-68.27-68.27-162.42-110.66-265.95-110.66s-197.69,42.39-265.96,110.66c-68.27,68.26-110.65,162.42-110.65,265.95v178.66c18.46,11.82,30.7,32.52,30.7,56.07,0,36.76-29.79,66.55-66.55,66.55s-66.54-29.79-66.54-66.55c0-23.55,12.23-44.25,30.69-56.07"/>
</svg>